<svg width="60" height="60" viewBox="0 0 60 60" fill="none" xmlns="http://www.w3.org/2000/svg">
<path d="M32.9017 11.0176C31.1165 9.9427 28.8835 9.9427 27.0983 11.0176L25.8076 11.7948C22.6757 13.6807 19.1598 14.8379 15.5201 15.1808L14.7069 15.2574C13.1017 15.4087 11.875 16.7563 11.875 18.3687V22.4784C11.875 29.4249 14.6952 36.0739 19.6896 40.902L27.828 48.7695C29.0393 49.9405 30.9607 49.9405 32.172 48.7695L40.3104 40.902C45.3048 36.0739 48.125 29.4249 48.125 22.4784V18.3687C48.125 16.7563 46.8983 15.4087 45.2931 15.2574L44.4799 15.1808C40.8402 14.8379 37.3243 13.6807 34.1924 11.7948L32.9017 11.0176Z" fill="white"/>
</svg>
