<svg width="60" height="60" viewBox="0 0 60 60" fill="none" xmlns="http://www.w3.org/2000/svg">
<path fill-rule="evenodd" clip-rule="evenodd" d="M29.9993 9.37402L48.1834 9.88816C51.3964 9.979 54.054 12.4181 54.4194 15.6116C55.2282 22.6807 55.2282 29.8189 54.4194 36.8879C54.054 40.0814 51.3964 42.5205 48.1834 42.6114L33.1244 43.0372V48.1248H42.4994C43.5349 48.1248 44.3744 48.9643 44.3744 49.9998C44.3744 51.0353 43.5349 51.8748 42.4994 51.8748H17.4994C16.4638 51.8748 15.6244 51.0353 15.6244 49.9998C15.6244 48.9643 16.4638 48.1248 17.4994 48.1248H26.8744V43.0372L11.8152 42.6114C8.6022 42.5205 5.94466 40.0814 5.57927 36.8879C4.77045 29.8189 4.77045 22.6807 5.57927 15.6116C5.94466 12.4181 8.6022 9.979 11.8152 9.88816L29.9993 9.37402ZM12.4994 34.3748C11.4638 34.3748 10.6244 35.2143 10.6244 36.2498C10.6244 37.2853 11.4638 38.1248 12.4994 38.1248H47.4994C48.5349 38.1248 49.3744 37.2853 49.3744 36.2498C49.3744 35.2143 48.5349 34.3748 47.4994 34.3748H12.4994Z" fill="white"/>
</svg>
