<svg width="60" height="60" viewBox="0 0 60 60" fill="none" xmlns="http://www.w3.org/2000/svg">
<path fill-rule="evenodd" clip-rule="evenodd" d="M52.526 25.4283L52.5325 34.4855C52.4687 35.3483 52.3865 36.2102 52.2859 37.0704C52.1177 38.5089 50.9483 39.6693 49.4798 39.8334C44.8804 40.3474 40.1209 40.3474 35.5215 39.8334C34.053 39.6693 32.8836 38.5089 32.7153 37.0704C32.1659 32.3729 32.1659 27.6273 32.7153 22.9298C32.8836 21.4913 34.053 20.3309 35.5215 20.1668C40.1209 19.6527 44.8804 19.6527 49.4798 20.1668C50.9483 20.3309 52.1177 21.4913 52.2859 22.9298C52.3832 23.7613 52.4632 24.5943 52.526 25.4283ZM42.5006 26.2501C40.4296 26.2501 38.7506 27.929 38.7506 30.0001C38.7506 32.0712 40.4296 33.7501 42.5006 33.7501C44.5717 33.7501 46.2506 32.0712 46.2506 30.0001C46.2506 27.929 44.5717 26.2501 42.5006 26.2501Z" fill="white"/>
<path d="M51.0096 15.0994C51.3983 15.7725 50.6688 16.5263 49.8963 16.44C45.0201 15.895 39.9812 15.895 35.105 16.44C31.9316 16.7947 29.3651 19.2935 28.9907 22.4942C28.4075 27.4811 28.4075 32.5191 28.9907 37.506C29.3651 40.7067 31.9316 43.2055 35.1049 43.5602C39.9812 44.1052 45.0201 44.1052 49.8963 43.5602C50.6739 43.4733 51.4095 44.2323 51.017 44.9092C49.0705 48.2663 45.6002 50.6093 41.5677 51.0336L39.938 51.2051C31.6609 52.0761 23.3123 52.0187 15.0479 51.0339L13.968 50.9052C9.51273 50.3743 5.98261 46.8934 5.38918 42.446C4.28694 34.1853 4.28694 25.8149 5.38918 17.5542C5.98261 13.1068 9.51273 9.62592 13.968 9.095L15.0479 8.96633C23.3123 7.98151 31.6609 7.92407 39.938 8.79508L41.5677 8.96657C45.6036 9.39128 49.0684 11.7378 51.0096 15.0994Z" fill="white"/>
</svg>
